<svg width="188" height="56" viewBox="0 0 188 56" fill="none" xmlns="http://www.w3.org/2000/svg">
<path d="M1 25.5C1 12.2452 11.7452 1.5 25 1.5H163C176.255 1.5 187 12.2452 187 25.5V30.5C187 43.7548 176.255 54.5 163 54.5H25C11.7452 54.5 1 43.7548 1 30.5V25.5Z" fill="#0F4C75" fill-opacity="0.42"/>
<path d="M35.6289 37.7305L35.793 25.4844H37.75L37.9141 37.7305H35.6289ZM37.9844 21.8281C37.9844 22.1719 37.875 22.4648 37.6562 22.707C37.4453 22.9492 37.1289 23.0703 36.707 23.0703C36.293 23.0703 35.9727 22.9492 35.7461 22.707C35.5273 22.4648 35.418 22.1719 35.418 21.8281C35.418 21.4844 35.5273 21.1953 35.7461 20.9609C35.9727 20.7188 36.293 20.5977 36.707 20.5977C37.1289 20.5977 37.4453 20.7188 37.6562 20.9609C37.875 21.1953 37.9844 21.4844 37.9844 21.8281ZM41.6289 16.4375H47.2773C48.5586 16.4375 49.6406 16.6328 50.5234 17.0234C51.4141 17.4141 52.0898 17.9922 52.5508 18.7578C53.0195 19.5156 53.2539 20.4492 53.2539 21.5586C53.2539 22.3398 53.0938 23.0547 52.7734 23.7031C52.4609 24.3438 52.0078 24.8906 51.4141 25.3438C50.8281 25.7891 50.125 26.1211 49.3047 26.3398L48.6719 26.5859H43.3633L43.3398 24.7461H47.3477C48.1602 24.7461 48.8359 24.6055 49.375 24.3242C49.9141 24.0352 50.3203 23.6484 50.5938 23.1641C50.8672 22.6797 51.0039 22.1445 51.0039 21.5586C51.0039 20.9023 50.875 20.3281 50.6172 19.8359C50.3594 19.3438 49.9531 18.9648 49.3984 18.6992C48.8516 18.4258 48.1445 18.2891 47.2773 18.2891H43.8906V33.5H41.6289V16.4375ZM51.6016 33.5L47.4531 25.7656L49.8086 25.7539L54.0156 33.3594V33.5H51.6016ZM61.3516 33.7344C60.4688 33.7344 59.668 33.5859 58.9492 33.2891C58.2383 32.9844 57.625 32.5586 57.1094 32.0117C56.6016 31.4648 56.2109 30.8164 55.9375 30.0664C55.6641 29.3164 55.5273 28.4961 55.5273 27.6055V27.1133C55.5273 26.082 55.6797 25.1641 55.9844 24.3594C56.2891 23.5469 56.7031 22.8594 57.2266 22.2969C57.75 21.7344 58.3438 21.3086 59.0078 21.0195C59.6719 20.7305 60.3594 20.5859 61.0703 20.5859C61.9766 20.5859 62.7578 20.7422 63.4141 21.0547C64.0781 21.3672 64.6211 21.8047 65.043 22.3672C65.4648 22.9219 65.7773 23.5781 65.9805 24.3359C66.1836 25.0859 66.2852 25.9062 66.2852 26.7969V27.7695H56.8164V26H64.1172V25.8359C64.0859 25.2734 63.9688 24.7266 63.7656 24.1953C63.5703 23.6641 63.2578 23.2266 62.8281 22.8828C62.3984 22.5391 61.8125 22.3672 61.0703 22.3672C60.5781 22.3672 60.125 22.4727 59.7109 22.6836C59.2969 22.8867 58.9414 23.1914 58.6445 23.5977C58.3477 24.0039 58.1172 24.5 57.9531 25.0859C57.7891 25.6719 57.707 26.3477 57.707 27.1133V27.6055C57.707 28.207 57.7891 28.7734 57.9531 29.3047C58.125 29.8281 58.3711 30.2891 58.6914 30.6875C59.0195 31.0859 59.4141 31.3984 59.875 31.625C60.3438 31.8516 60.875 31.9648 61.4688 31.9648C62.2344 31.9648 62.8828 31.8086 63.4141 31.4961C63.9453 31.1836 64.4102 30.7656 64.8086 30.2422L66.1211 31.2852C65.8477 31.6992 65.5 32.0938 65.0781 32.4688C64.6562 32.8438 64.1367 33.1484 63.5195 33.3828C62.9102 33.6172 62.1875 33.7344 61.3516 33.7344ZM77.0312 20.8203H79V33.2305C79 34.3477 78.7734 35.3008 78.3203 36.0898C77.8672 36.8789 77.2344 37.4766 76.4219 37.8828C75.6172 38.2969 74.6875 38.5039 73.6328 38.5039C73.1953 38.5039 72.6797 38.4336 72.0859 38.293C71.5 38.1602 70.9219 37.9297 70.3516 37.6016C69.7891 37.2812 69.3164 36.8477 68.9336 36.3008L70.0703 35.0117C70.6016 35.6523 71.1562 36.0977 71.7344 36.3477C72.3203 36.5977 72.8984 36.7227 73.4688 36.7227C74.1562 36.7227 74.75 36.5938 75.25 36.3359C75.75 36.0781 76.1367 35.6953 76.4102 35.1875C76.6914 34.6875 76.832 34.0703 76.832 33.3359V23.6094L77.0312 20.8203ZM68.3008 27.3008V27.0547C68.3008 26.0859 68.4141 25.207 68.6406 24.418C68.875 23.6211 69.207 22.9375 69.6367 22.3672C70.0742 21.7969 70.6016 21.3594 71.2188 21.0547C71.8359 20.7422 72.5312 20.5859 73.3047 20.5859C74.1016 20.5859 74.7969 20.7266 75.3906 21.0078C75.9922 21.2812 76.5 21.6836 76.9141 22.2148C77.3359 22.7383 77.668 23.3711 77.9102 24.1133C78.1523 24.8555 78.3203 25.6953 78.4141 26.6328V27.7109C78.3281 28.6406 78.1602 29.4766 77.9102 30.2188C77.668 30.9609 77.3359 31.5938 76.9141 32.1172C76.5 32.6406 75.9922 33.043 75.3906 33.3242C74.7891 33.5977 74.0859 33.7344 73.2812 33.7344C72.5234 33.7344 71.8359 33.5742 71.2188 33.2539C70.6094 32.9336 70.0859 32.4844 69.6484 31.9062C69.2109 31.3281 68.875 30.6484 68.6406 29.8672C68.4141 29.0781 68.3008 28.2227 68.3008 27.3008ZM70.4688 27.0547V27.3008C70.4688 27.9336 70.5312 28.5273 70.6562 29.082C70.7891 29.6367 70.9883 30.125 71.2539 30.5469C71.5273 30.9688 71.875 31.3008 72.2969 31.543C72.7188 31.7773 73.2227 31.8945 73.8086 31.8945C74.5273 31.8945 75.1211 31.7422 75.5898 31.4375C76.0586 31.1328 76.4297 30.7305 76.7031 30.2305C76.9844 29.7305 77.2031 29.1875 77.3594 28.6016V25.7773C77.2734 25.3477 77.1406 24.9336 76.9609 24.5352C76.7891 24.1289 76.5625 23.7695 76.2812 23.457C76.0078 23.1367 75.668 22.8828 75.2617 22.6953C74.8555 22.5078 74.3789 22.4141 73.832 22.4141C73.2383 22.4141 72.7266 22.5391 72.2969 22.7891C71.875 23.0312 71.5273 23.3672 71.2539 23.7969C70.9883 24.2188 70.7891 24.7109 70.6562 25.2734C70.5312 25.8281 70.4688 26.4219 70.4688 27.0547ZM84.6484 20.8203V33.5H82.4688V20.8203H84.6484ZM82.3047 17.457C82.3047 17.1055 82.4102 16.8086 82.6211 16.5664C82.8398 16.3242 83.1602 16.2031 83.582 16.2031C83.9961 16.2031 84.3125 16.3242 84.5312 16.5664C84.7578 16.8086 84.8711 17.1055 84.8711 17.457C84.8711 17.793 84.7578 18.082 84.5312 18.3242C84.3125 18.5586 83.9961 18.6758 83.582 18.6758C83.1602 18.6758 82.8398 18.5586 82.6211 18.3242C82.4102 18.082 82.3047 17.793 82.3047 17.457ZM95.5117 30.1367C95.5117 29.8242 95.4414 29.5352 95.3008 29.2695C95.168 28.9961 94.8906 28.75 94.4688 28.5312C94.0547 28.3047 93.4297 28.1094 92.5938 27.9453C91.8906 27.7969 91.2539 27.6211 90.6836 27.418C90.1211 27.2148 89.6406 26.9688 89.2422 26.6797C88.8516 26.3906 88.5508 26.0508 88.3398 25.6602C88.1289 25.2695 88.0234 24.8125 88.0234 24.2891C88.0234 23.7891 88.1328 23.3164 88.3516 22.8711C88.5781 22.4258 88.8945 22.0312 89.3008 21.6875C89.7148 21.3438 90.2109 21.0742 90.7891 20.8789C91.3672 20.6836 92.0117 20.5859 92.7227 20.5859C93.7383 20.5859 94.6055 20.7656 95.3242 21.125C96.043 21.4844 96.5938 21.9648 96.9766 22.5664C97.3594 23.1602 97.5508 23.8203 97.5508 24.5469H95.3828C95.3828 24.1953 95.2773 23.8555 95.0664 23.5273C94.8633 23.1914 94.5625 22.9141 94.1641 22.6953C93.7734 22.4766 93.293 22.3672 92.7227 22.3672C92.1211 22.3672 91.6328 22.4609 91.2578 22.6484C90.8906 22.8281 90.6211 23.0586 90.4492 23.3398C90.2852 23.6211 90.2031 23.918 90.2031 24.2305C90.2031 24.4648 90.2422 24.6758 90.3203 24.8633C90.4062 25.043 90.5547 25.2109 90.7656 25.3672C90.9766 25.5156 91.2734 25.6562 91.6562 25.7891C92.0391 25.9219 92.5273 26.0547 93.1211 26.1875C94.1602 26.4219 95.0156 26.7031 95.6875 27.0312C96.3594 27.3594 96.8594 27.7617 97.1875 28.2383C97.5156 28.7148 97.6797 29.293 97.6797 29.9727C97.6797 30.5273 97.5625 31.0352 97.3281 31.4961C97.1016 31.957 96.7695 32.3555 96.332 32.6914C95.9023 33.0195 95.3867 33.2773 94.7852 33.4648C94.1914 33.6445 93.5234 33.7344 92.7812 33.7344C91.6641 33.7344 90.7188 33.5352 89.9453 33.1367C89.1719 32.7383 88.5859 32.2227 88.1875 31.5898C87.7891 30.957 87.5898 30.2891 87.5898 29.5859H89.7695C89.8008 30.1797 89.9727 30.6523 90.2852 31.0039C90.5977 31.3477 90.9805 31.5938 91.4336 31.7422C91.8867 31.8828 92.3359 31.9531 92.7812 31.9531C93.375 31.9531 93.8711 31.875 94.2695 31.7188C94.6758 31.5625 94.9844 31.3477 95.1953 31.0742C95.4062 30.8008 95.5117 30.4883 95.5117 30.1367ZM105.836 20.8203V22.4844H98.9805V20.8203H105.836ZM101.301 17.7383H103.469V30.3594C103.469 30.7891 103.535 31.1133 103.668 31.332C103.801 31.5508 103.973 31.6953 104.184 31.7656C104.395 31.8359 104.621 31.8711 104.863 31.8711C105.043 31.8711 105.23 31.8555 105.426 31.8242C105.629 31.7852 105.781 31.7539 105.883 31.7305L105.895 33.5C105.723 33.5547 105.496 33.6055 105.215 33.6523C104.941 33.707 104.609 33.7344 104.219 33.7344C103.688 33.7344 103.199 33.6289 102.754 33.418C102.309 33.207 101.953 32.8555 101.688 32.3633C101.43 31.8633 101.301 31.1914 101.301 30.3477V17.7383ZM110.547 22.8125V33.5H108.379V20.8203H110.488L110.547 22.8125ZM114.508 20.75L114.496 22.7656C114.316 22.7266 114.145 22.7031 113.98 22.6953C113.824 22.6797 113.645 22.6719 113.441 22.6719C112.941 22.6719 112.5 22.75 112.117 22.9062C111.734 23.0625 111.41 23.2812 111.145 23.5625C110.879 23.8438 110.668 24.1797 110.512 24.5703C110.363 24.9531 110.266 25.375 110.219 25.8359L109.609 26.1875C109.609 25.4219 109.684 24.7031 109.832 24.0312C109.988 23.3594 110.227 22.7656 110.547 22.25C110.867 21.7266 111.273 21.3203 111.766 21.0312C112.266 20.7344 112.859 20.5859 113.547 20.5859C113.703 20.5859 113.883 20.6055 114.086 20.6445C114.289 20.6758 114.43 20.7109 114.508 20.75ZM123.52 31.332V24.8047C123.52 24.3047 123.418 23.8711 123.215 23.5039C123.02 23.1289 122.723 22.8398 122.324 22.6367C121.926 22.4336 121.434 22.332 120.848 22.332C120.301 22.332 119.82 22.4258 119.406 22.6133C119 22.8008 118.68 23.0469 118.445 23.3516C118.219 23.6562 118.105 23.9844 118.105 24.3359H115.938C115.938 23.8828 116.055 23.4336 116.289 22.9883C116.523 22.543 116.859 22.1406 117.297 21.7812C117.742 21.4141 118.273 21.125 118.891 20.9141C119.516 20.6953 120.211 20.5859 120.977 20.5859C121.898 20.5859 122.711 20.7422 123.414 21.0547C124.125 21.3672 124.68 21.8398 125.078 22.4727C125.484 23.0977 125.688 23.8828 125.688 24.8281V30.7344C125.688 31.1562 125.723 31.6055 125.793 32.082C125.871 32.5586 125.984 32.9688 126.133 33.3125V33.5H123.871C123.762 33.25 123.676 32.918 123.613 32.5039C123.551 32.082 123.52 31.6914 123.52 31.332ZM123.895 25.8125L123.918 27.3359H121.727C121.109 27.3359 120.559 27.3867 120.074 27.4883C119.59 27.582 119.184 27.7266 118.855 27.9219C118.527 28.1172 118.277 28.3633 118.105 28.6602C117.934 28.9492 117.848 29.2891 117.848 29.6797C117.848 30.0781 117.938 30.4414 118.117 30.7695C118.297 31.0977 118.566 31.3594 118.926 31.5547C119.293 31.7422 119.742 31.8359 120.273 31.8359C120.938 31.8359 121.523 31.6953 122.031 31.4141C122.539 31.1328 122.941 30.7891 123.238 30.3828C123.543 29.9766 123.707 29.582 123.73 29.1992L124.656 30.2422C124.602 30.5703 124.453 30.9336 124.211 31.332C123.969 31.7305 123.645 32.1133 123.238 32.4805C122.84 32.8398 122.363 33.1406 121.809 33.3828C121.262 33.6172 120.645 33.7344 119.957 33.7344C119.098 33.7344 118.344 33.5664 117.695 33.2305C117.055 32.8945 116.555 32.4453 116.195 31.8828C115.844 31.3125 115.668 30.6758 115.668 29.9727C115.668 29.293 115.801 28.6953 116.066 28.1797C116.332 27.6562 116.715 27.2227 117.215 26.8789C117.715 26.5273 118.316 26.2617 119.02 26.082C119.723 25.9023 120.508 25.8125 121.375 25.8125H123.895ZM134.406 20.8203V22.4844H127.551V20.8203H134.406ZM129.871 17.7383H132.039V30.3594C132.039 30.7891 132.105 31.1133 132.238 31.332C132.371 31.5508 132.543 31.6953 132.754 31.7656C132.965 31.8359 133.191 31.8711 133.434 31.8711C133.613 31.8711 133.801 31.8555 133.996 31.8242C134.199 31.7852 134.352 31.7539 134.453 31.7305L134.465 33.5C134.293 33.5547 134.066 33.6055 133.785 33.6523C133.512 33.707 133.18 33.7344 132.789 33.7344C132.258 33.7344 131.77 33.6289 131.324 33.418C130.879 33.207 130.523 32.8555 130.258 32.3633C130 31.8633 129.871 31.1914 129.871 30.3477V17.7383ZM142.211 33.7344C141.328 33.7344 140.527 33.5859 139.809 33.2891C139.098 32.9844 138.484 32.5586 137.969 32.0117C137.461 31.4648 137.07 30.8164 136.797 30.0664C136.523 29.3164 136.387 28.4961 136.387 27.6055V27.1133C136.387 26.082 136.539 25.1641 136.844 24.3594C137.148 23.5469 137.562 22.8594 138.086 22.2969C138.609 21.7344 139.203 21.3086 139.867 21.0195C140.531 20.7305 141.219 20.5859 141.93 20.5859C142.836 20.5859 143.617 20.7422 144.273 21.0547C144.938 21.3672 145.48 21.8047 145.902 22.3672C146.324 22.9219 146.637 23.5781 146.84 24.3359C147.043 25.0859 147.145 25.9062 147.145 26.7969V27.7695H137.676V26H144.977V25.8359C144.945 25.2734 144.828 24.7266 144.625 24.1953C144.43 23.6641 144.117 23.2266 143.688 22.8828C143.258 22.5391 142.672 22.3672 141.93 22.3672C141.438 22.3672 140.984 22.4727 140.57 22.6836C140.156 22.8867 139.801 23.1914 139.504 23.5977C139.207 24.0039 138.977 24.5 138.812 25.0859C138.648 25.6719 138.566 26.3477 138.566 27.1133V27.6055C138.566 28.207 138.648 28.7734 138.812 29.3047C138.984 29.8281 139.23 30.2891 139.551 30.6875C139.879 31.0859 140.273 31.3984 140.734 31.625C141.203 31.8516 141.734 31.9648 142.328 31.9648C143.094 31.9648 143.742 31.8086 144.273 31.4961C144.805 31.1836 145.27 30.7656 145.668 30.2422L146.98 31.2852C146.707 31.6992 146.359 32.0938 145.938 32.4688C145.516 32.8438 144.996 33.1484 144.379 33.3828C143.77 33.6172 143.047 33.7344 142.211 33.7344ZM152.254 16.4375L152.102 28.6836H150.145L149.98 16.4375H152.254ZM149.91 32.4102C149.91 32.0586 150.016 31.7617 150.227 31.5195C150.445 31.2773 150.766 31.1562 151.188 31.1562C151.602 31.1562 151.918 31.2773 152.137 31.5195C152.363 31.7617 152.477 32.0586 152.477 32.4102C152.477 32.7461 152.363 33.0352 152.137 33.2773C151.918 33.5195 151.602 33.6406 151.188 33.6406C150.766 33.6406 150.445 33.5195 150.227 33.2773C150.016 33.0352 149.91 32.7461 149.91 32.4102Z" fill="white"/>
<path d="M25 2.5H163V0.5H25V2.5ZM186 25.5V30.5H188V25.5H186ZM163 53.5H25V55.5H163V53.5ZM2 30.5V25.5H0V30.5H2ZM25 53.5C12.2975 53.5 2 43.2025 2 30.5H0C0 44.3071 11.1929 55.5 25 55.5V53.5ZM186 30.5C186 43.2025 175.703 53.5 163 53.5V55.5C176.807 55.5 188 44.3071 188 30.5H186ZM163 2.5C175.703 2.5 186 12.7975 186 25.5H188C188 11.6929 176.807 0.5 163 0.5V2.5ZM25 0.5C11.1929 0.5 0 11.6929 0 25.5H2C2 12.7975 12.2975 2.5 25 2.5V0.5Z" fill="white"/>
</svg>
