<svg width="97" height="92" viewBox="0 0 97 92" fill="none" xmlns="http://www.w3.org/2000/svg">
<line x1="13.4679" y1="77.5" x2="83.5321" y2="77.5" stroke="white" stroke-width="3"/>
<path d="M24.043 47.9375V65H21.7812V47.9375H24.043ZM29.9961 55.0273V65H27.8281V52.3203H29.8789L29.9961 55.0273ZM29.4805 58.1797L28.5781 58.1445C28.5859 57.2773 28.7148 56.4766 28.9648 55.7422C29.2148 55 29.5664 54.3555 30.0195 53.8086C30.4727 53.2617 31.0117 52.8398 31.6367 52.543C32.2695 52.2383 32.9688 52.0859 33.7344 52.0859C34.3594 52.0859 34.9219 52.1719 35.4219 52.3438C35.9219 52.5078 36.3477 52.7734 36.6992 53.1406C37.0586 53.5078 37.332 53.9844 37.5195 54.5703C37.707 55.1484 37.8008 55.8555 37.8008 56.6914V65H35.6211V56.668C35.6211 56.0039 35.5234 55.4727 35.3281 55.0742C35.1328 54.668 34.8477 54.375 34.4727 54.1953C34.0977 54.0078 33.6367 53.9141 33.0898 53.9141C32.5508 53.9141 32.0586 54.0273 31.6133 54.2539C31.1758 54.4805 30.7969 54.793 30.4766 55.1914C30.1641 55.5898 29.918 56.0469 29.7383 56.5625C29.5664 57.0703 29.4805 57.6094 29.4805 58.1797ZM43.4492 52.3203V65H41.2695V52.3203H43.4492ZM41.1055 48.957C41.1055 48.6055 41.2109 48.3086 41.4219 48.0664C41.6406 47.8242 41.9609 47.7031 42.3828 47.7031C42.7969 47.7031 43.1133 47.8242 43.332 48.0664C43.5586 48.3086 43.6719 48.6055 43.6719 48.957C43.6719 49.293 43.5586 49.582 43.332 49.8242C43.1133 50.0586 42.7969 50.1758 42.3828 50.1758C41.9609 50.1758 41.6406 50.0586 41.4219 49.8242C41.2109 49.582 41.1055 49.293 41.1055 48.957ZM52.0039 63.4531C52.5195 63.4531 52.9961 63.3477 53.4336 63.1367C53.8711 62.9258 54.2305 62.6367 54.5117 62.2695C54.793 61.8945 54.9531 61.4688 54.9922 60.9922H57.0547C57.0156 61.7422 56.7617 62.4414 56.293 63.0898C55.832 63.7305 55.2266 64.25 54.4766 64.6484C53.7266 65.0391 52.9023 65.2344 52.0039 65.2344C51.0508 65.2344 50.2188 65.0664 49.5078 64.7305C48.8047 64.3945 48.2188 63.9336 47.75 63.3477C47.2891 62.7617 46.9414 62.0898 46.707 61.332C46.4805 60.5664 46.3672 59.7578 46.3672 58.9062V58.4141C46.3672 57.5625 46.4805 56.7578 46.707 56C46.9414 55.2344 47.2891 54.5586 47.75 53.9727C48.2188 53.3867 48.8047 52.9258 49.5078 52.5898C50.2188 52.2539 51.0508 52.0859 52.0039 52.0859C52.9961 52.0859 53.8633 52.2891 54.6055 52.6953C55.3477 53.0938 55.9297 53.6406 56.3516 54.3359C56.7812 55.0234 57.0156 55.8047 57.0547 56.6797H54.9922C54.9531 56.1562 54.8047 55.6836 54.5469 55.2617C54.2969 54.8398 53.9531 54.5039 53.5156 54.2539C53.0859 53.9961 52.582 53.8672 52.0039 53.8672C51.3398 53.8672 50.7812 54 50.3281 54.2656C49.8828 54.5234 49.5273 54.875 49.2617 55.3203C49.0039 55.7578 48.8164 56.2461 48.6992 56.7852C48.5898 57.3164 48.5352 57.8594 48.5352 58.4141V58.9062C48.5352 59.4609 48.5898 60.0078 48.6992 60.5469C48.8086 61.0859 48.9922 61.5742 49.25 62.0117C49.5156 62.4492 49.8711 62.8008 50.3164 63.0664C50.7695 63.3242 51.332 63.4531 52.0039 63.4531ZM61.8477 52.3203V65H59.668V52.3203H61.8477ZM59.5039 48.957C59.5039 48.6055 59.6094 48.3086 59.8203 48.0664C60.0391 47.8242 60.3594 47.7031 60.7812 47.7031C61.1953 47.7031 61.5117 47.8242 61.7305 48.0664C61.957 48.3086 62.0703 48.6055 62.0703 48.957C62.0703 49.293 61.957 49.582 61.7305 49.8242C61.5117 50.0586 61.1953 50.1758 60.7812 50.1758C60.3594 50.1758 60.0391 50.0586 59.8203 49.8242C59.6094 49.582 59.5039 49.293 59.5039 48.957ZM64.7539 58.8008V58.5312C64.7539 57.6172 64.8867 56.7695 65.1523 55.9883C65.418 55.1992 65.8008 54.5156 66.3008 53.9375C66.8008 53.3516 67.4062 52.8984 68.1172 52.5781C68.8281 52.25 69.625 52.0859 70.5078 52.0859C71.3984 52.0859 72.1992 52.25 72.9102 52.5781C73.6289 52.8984 74.2383 53.3516 74.7383 53.9375C75.2461 54.5156 75.6328 55.1992 75.8984 55.9883C76.1641 56.7695 76.2969 57.6172 76.2969 58.5312V58.8008C76.2969 59.7148 76.1641 60.5625 75.8984 61.3438C75.6328 62.125 75.2461 62.8086 74.7383 63.3945C74.2383 63.9727 73.6328 64.4258 72.9219 64.7539C72.2188 65.0742 71.4219 65.2344 70.5312 65.2344C69.6406 65.2344 68.8398 65.0742 68.1289 64.7539C67.418 64.4258 66.8086 63.9727 66.3008 63.3945C65.8008 62.8086 65.418 62.125 65.1523 61.3438C64.8867 60.5625 64.7539 59.7148 64.7539 58.8008ZM66.9219 58.5312V58.8008C66.9219 59.4336 66.9961 60.0312 67.1445 60.5938C67.293 61.1484 67.5156 61.6406 67.8125 62.0703C68.1172 62.5 68.4961 62.8398 68.9492 63.0898C69.4023 63.332 69.9297 63.4531 70.5312 63.4531C71.125 63.4531 71.6445 63.332 72.0898 63.0898C72.543 62.8398 72.918 62.5 73.2148 62.0703C73.5117 61.6406 73.7344 61.1484 73.8828 60.5938C74.0391 60.0312 74.1172 59.4336 74.1172 58.8008V58.5312C74.1172 57.9062 74.0391 57.3164 73.8828 56.7617C73.7344 56.1992 73.5078 55.7031 73.2031 55.2734C72.9062 54.8359 72.5312 54.4922 72.0781 54.2422C71.6328 53.9922 71.1094 53.8672 70.5078 53.8672C69.9141 53.8672 69.3906 53.9922 68.9375 54.2422C68.4922 54.4922 68.1172 54.8359 67.8125 55.2734C67.5156 55.7031 67.293 56.1992 67.1445 56.7617C66.9961 57.3164 66.9219 57.9062 66.9219 58.5312Z" fill="white"/>
<path d="M62 35.5307V25.8683C62.0001 25.1961 61.8501 24.5309 61.5592 23.9136C61.2684 23.2962 60.8427 22.7396 60.3085 22.278L50.3549 13.675C49.8536 13.2415 49.1899 13 48.5 13C47.8101 13 47.1464 13.2415 46.6451 13.675L36.6916 22.278C36.1573 22.7396 35.7316 23.2962 35.4408 23.9136C35.1499 24.5309 34.9999 25.1961 35 25.8683V35.5307C35 36.1856 35.2845 36.8137 35.7908 37.2768C36.2972 37.7398 36.9839 38 37.7 38H59.3C60.0161 38 60.7028 37.7398 61.2092 37.2768C61.7155 36.8137 62 36.1856 62 35.5307Z" stroke="white" stroke-width="3" stroke-linecap="round" stroke-linejoin="round"/>
</svg>
