<svg width="175" height="88" viewBox="0 0 175 88" fill="none" xmlns="http://www.w3.org/2000/svg">
<path d="M3 15.5C3 8.3203 8.8203 2.5 16 2.5H159C166.18 2.5 172 8.3203 172 15.5V72.5C172 79.6797 166.18 85.5 159 85.5H16C8.8203 85.5 3 79.6797 3 72.5V15.5Z" fill="#0F4C75" fill-opacity="0.42"/>
<path d="M74.6811 40.3564L82.1478 22.3462H88.0144V24.6026H85.5529V42.2436H88.0144V44.5H80.6298V42.2436H83.0913V26.1615H82.9272L75.3375 44.5H73.5734L66.0247 26.1615H65.8606V42.2436H68.3221V44.5H60.9375V42.2436H63.399V24.6026H60.9375V22.3462H67.1324L74.517 40.3564H74.6811ZM104.417 29.5256L98.7149 44.6231C98.2773 45.7991 97.8397 46.8385 97.4021 47.741C96.9645 48.6709 96.4858 49.4368 95.9662 50.0385C95.4465 50.6402 94.8311 51.0915 94.12 51.3923C93.4089 51.7205 92.5884 51.8846 91.6585 51.8846C91.0021 51.8846 90.332 51.8026 89.6482 51.6385V49.4231C90.3046 49.5598 90.9611 49.6282 91.6175 49.6282C92.1371 49.6282 92.5747 49.5735 92.9303 49.4641C93.3132 49.3821 93.6824 49.1632 94.038 48.8077C94.4209 48.4795 94.8038 47.9735 95.1867 47.2897C95.5696 46.6333 95.9935 45.7034 96.4585 44.5H96.1713L90.838 29.5256H88.8277V27.2692H95.3918V29.5256H93.4226L97.5662 41.3H97.6893L102.12 29.5256H100.315V27.2692H106.058V29.5256H104.417ZM42.4554 69.5C41.6178 69.5 40.9255 69.2949 40.3785 68.8846C39.8315 68.4744 39.558 67.8419 39.558 66.9872V60.141H38.0195V58.7308H39.558V55.9359L41.0965 55.6538V58.7308H44.4298V60.141H41.0965V66.7308C41.0965 67.2094 41.2503 67.5598 41.558 67.7821C41.8657 67.9872 42.2418 68.0897 42.6862 68.0897C43.2503 68.0897 43.8315 67.9359 44.4298 67.6282V68.9872C43.7973 69.3291 43.1392 69.5 42.4554 69.5ZM46.2277 59.6282C47.5097 59.0299 48.8174 58.7308 50.1507 58.7308C51.3131 58.7308 52.1849 58.9957 52.7661 59.5256C53.3644 60.0556 53.6636 60.9103 53.6636 62.0897V68.0897H55.202V69.5H52.2277L52.1251 67.9359H52.0482C51.1251 68.9786 50.0311 69.5 48.7661 69.5C47.7405 69.5 46.9542 69.2436 46.4072 68.7308C45.8601 68.2009 45.5866 67.4744 45.5866 66.5513C45.5866 64.2607 47.4072 63.1154 51.0482 63.1154H52.1251V62.0385C52.1251 61.4231 51.9456 60.953 51.5866 60.6282C51.2448 60.3034 50.6892 60.141 49.92 60.141C48.7918 60.141 47.561 60.4402 46.2277 61.0385V59.6282ZM50.7918 64.5256C48.4328 64.5256 47.2533 65.1667 47.2533 66.4487C47.2533 66.9957 47.4072 67.406 47.7148 67.6795C48.0396 67.953 48.5012 68.0897 49.0995 68.0897C50.1935 68.0897 51.202 67.5684 52.1251 66.5256V64.5256H50.7918ZM56.4766 68.0897H58.015V55.5256H56.4766V54.1154H59.5535V68.0897H61.0919V69.5H56.4766V68.0897ZM68.3212 68.0897C69.4323 68.0897 70.5263 67.7393 71.6033 67.0385V68.5513C70.4922 69.1838 69.3298 69.5 68.1161 69.5C66.5776 69.5 65.3639 69.0214 64.4751 68.0641C63.5862 67.0897 63.1417 65.8248 63.1417 64.2692C63.1417 62.5256 63.5776 61.1667 64.4494 60.1923C65.3383 59.2179 66.5007 58.7308 67.9366 58.7308C69.1845 58.7308 70.1503 59.1581 70.834 60.0128C71.5178 60.8504 71.8597 62.0214 71.8597 63.5256V64.3205H64.8084C64.8597 65.5 65.1588 66.4231 65.7058 67.0897C66.2699 67.7564 67.1417 68.0897 68.3212 68.0897ZM70.3212 62.9103C70.2357 61.0641 69.381 60.141 67.7571 60.141C66.9024 60.141 66.2357 60.3889 65.7571 60.8846C65.2956 61.3632 65.005 62.0385 64.8853 62.9103H70.3212ZM73.3906 68.0897H74.9291V60.141H73.3906V58.7308H76.3906L76.4675 60.2436H76.4932C77.4675 59.235 78.5958 58.7308 79.8778 58.7308C80.9034 58.7308 81.6556 59.0214 82.1342 59.6026C82.6299 60.1838 82.8778 60.9872 82.8778 62.0128V68.0897H84.4163V69.5H79.8009V68.0897H81.3393V62.1923C81.3393 61.4231 81.1684 60.8932 80.8265 60.6026C80.4846 60.2949 80.0317 60.141 79.4675 60.141C78.3222 60.141 77.3222 60.688 76.4675 61.7821V68.0897H78.006V69.5H73.3906V68.0897ZM90.1312 69.5C89.2936 69.5 88.6013 69.2949 88.0543 68.8846C87.5073 68.4744 87.2338 67.8419 87.2338 66.9872V60.141H85.6953V58.7308H87.2338V55.9359L88.7722 55.6538V58.7308H92.1056V60.141H88.7722V66.7308C88.7722 67.2094 88.9261 67.5598 89.2338 67.7821C89.5415 67.9872 89.9175 68.0897 90.362 68.0897C90.9261 68.0897 91.5073 67.9359 92.1056 67.6282V68.9872C91.4731 69.3291 90.815 69.5 90.1312 69.5ZM94.1599 61.6795C94.1599 60.7393 94.5445 60.0128 95.3137 59.5C96.1 58.9872 97.1171 58.7308 98.365 58.7308C99.4248 58.7308 100.544 58.9188 101.724 59.2949V61.8077H100.185V60.3462C99.5872 60.1923 98.9376 60.1154 98.2368 60.1154C97.553 60.1154 96.9804 60.2265 96.5188 60.4487C96.0573 60.6709 95.8265 61.0128 95.8265 61.4744C95.8265 61.7479 95.8778 61.9786 95.9804 62.1667C96.1 62.3376 96.271 62.4915 96.4932 62.6282C96.7154 62.7479 96.9975 62.8675 97.3393 62.9872C97.6812 63.1068 98.0744 63.235 98.5188 63.3718C98.9462 63.5085 99.3735 63.6538 99.8009 63.8077C100.228 63.9615 100.613 64.1496 100.955 64.3718C101.297 64.594 101.57 64.8761 101.775 65.2179C101.997 65.5427 102.109 65.953 102.109 66.4487C102.109 67.406 101.707 68.1581 100.903 68.7051C100.1 69.235 99.0402 69.5 97.724 69.5C96.5445 69.5 95.3992 69.2692 94.2881 68.8077V66.4231H95.8265V67.8846C96.459 68.0385 97.1342 68.1154 97.8522 68.1154C98.5701 68.1154 99.1769 68.0043 99.6727 67.7821C100.185 67.5427 100.442 67.1752 100.442 66.6795C100.442 66.1496 100.211 65.765 99.7496 65.5256C99.3052 65.2863 98.6727 65.047 97.8522 64.8077C97.4248 64.688 96.9889 64.5513 96.5445 64.3974C96.1171 64.2436 95.724 64.0556 95.365 63.8333C95.006 63.594 94.7154 63.3034 94.4932 62.9615C94.271 62.6197 94.1599 62.1923 94.1599 61.6795ZM109.275 59.6282C110.557 59.0299 111.864 58.7308 113.198 58.7308C114.36 58.7308 115.232 58.9957 115.813 59.5256C116.411 60.0556 116.71 60.9103 116.71 62.0897V68.0897H118.249V69.5H115.275L115.172 67.9359H115.095C114.172 68.9786 113.078 69.5 111.813 69.5C110.787 69.5 110.001 69.2436 109.454 68.7308C108.907 68.2009 108.634 67.4744 108.634 66.5513C108.634 64.2607 110.454 63.1154 114.095 63.1154H115.172V62.0385C115.172 61.4231 114.992 60.953 114.634 60.6282C114.292 60.3034 113.736 60.141 112.967 60.141C111.839 60.141 110.608 60.4402 109.275 61.0385V59.6282ZM113.839 64.5256C111.48 64.5256 110.3 65.1667 110.3 66.4487C110.3 66.9957 110.454 67.406 110.762 67.6795C111.087 67.953 111.548 68.0897 112.146 68.0897C113.24 68.0897 114.249 67.5684 115.172 66.5256V64.5256H113.839ZM126.19 60.5C125.831 60.4316 125.481 60.3974 125.139 60.3974C123.976 60.3974 123.13 60.9359 122.6 62.0128V68.0897H124.139V69.5H119.523V68.0897H121.062V60.141H119.523V58.7308H122.498L122.6 60.2949H122.652C123.318 59.2521 124.233 58.7308 125.395 58.7308C125.652 58.7308 125.917 58.7564 126.19 58.8077V60.5ZM132.911 68.0897C134.022 68.0897 135.116 67.7393 136.193 67.0385V68.5513C135.082 69.1838 133.92 69.5 132.706 69.5C131.167 69.5 129.954 69.0214 129.065 68.0641C128.176 67.0897 127.732 65.8248 127.732 64.2692C127.732 62.5256 128.167 61.1667 129.039 60.1923C129.928 59.2179 131.091 58.7308 132.526 58.7308C133.774 58.7308 134.74 59.1581 135.424 60.0128C136.108 60.8504 136.45 62.0214 136.45 63.5256V64.3205H129.398C129.45 65.5 129.749 66.4231 130.296 67.0897C130.86 67.7564 131.732 68.0897 132.911 68.0897ZM134.911 62.9103C134.826 61.0641 133.971 60.141 132.347 60.141C131.492 60.141 130.826 60.3889 130.347 60.8846C129.885 61.3632 129.595 62.0385 129.475 62.9103H134.911Z" fill="white"/>
<path d="M16 5H159V0H16V5ZM169.5 15.5V72.5H174.5V15.5H169.5ZM159 83H16V88H159V83ZM5.5 72.5V15.5H0.5V72.5H5.5ZM16 83C10.201 83 5.5 78.299 5.5 72.5H0.5C0.5 81.0604 7.43959 88 16 88V83ZM169.5 72.5C169.5 78.299 164.799 83 159 83V88C167.56 88 174.5 81.0604 174.5 72.5H169.5ZM159 5C164.799 5 169.5 9.70101 169.5 15.5H174.5C174.5 6.93959 167.56 0 159 0V5ZM16 0C7.43959 0 0.5 6.93959 0.5 15.5H5.5C5.5 9.70101 10.201 5 16 5V0Z" fill="white"/>
</svg>
