<svg width="101" height="58" viewBox="0 0 101 58" fill="none" xmlns="http://www.w3.org/2000/svg">
<path d="M53.2 5.26316V2.63158H47.8V5.26316H53.2ZM39.7 7.89474V22.3684H61.3V7.89474H39.7ZM61.3 5.26316C62.7985 5.26316 64 6.43421 64 7.89474V22.3684C64 23.8289 62.7985 25 61.3 25H39.7C38.2015 25 37 23.8289 37 22.3684L37.0135 7.89474C37.0135 6.43421 38.2015 5.26316 39.7 5.26316H45.1V2.63158C45.1 1.17105 46.3015 0 47.8 0H53.2C54.6985 0 55.9 1.17105 55.9 2.63158V5.26316H61.3Z" fill="white"/>
<path d="M12.5312 34.9375V52H10.3047V34.9375H12.5312ZM18.0156 34.9375V36.7891H4.83203V34.9375H18.0156ZM21.4961 41.3125V52H19.3281V39.3203H21.4375L21.4961 41.3125ZM25.457 39.25L25.4453 41.2656C25.2656 41.2266 25.0938 41.2031 24.9297 41.1953C24.7734 41.1797 24.5938 41.1719 24.3906 41.1719C23.8906 41.1719 23.4492 41.25 23.0664 41.4062C22.6836 41.5625 22.3594 41.7812 22.0938 42.0625C21.8281 42.3438 21.6172 42.6797 21.4609 43.0703C21.3125 43.4531 21.2148 43.875 21.168 44.3359L20.5586 44.6875C20.5586 43.9219 20.6328 43.2031 20.7812 42.5312C20.9375 41.8594 21.1758 41.2656 21.4961 40.75C21.8164 40.2266 22.2227 39.8203 22.7148 39.5312C23.2148 39.2344 23.8086 39.0859 24.4961 39.0859C24.6523 39.0859 24.832 39.1055 25.0352 39.1445C25.2383 39.1758 25.3789 39.2109 25.457 39.25ZM34.4688 49.832V43.3047C34.4688 42.8047 34.3672 42.3711 34.1641 42.0039C33.9688 41.6289 33.6719 41.3398 33.2734 41.1367C32.875 40.9336 32.3828 40.832 31.7969 40.832C31.25 40.832 30.7695 40.9258 30.3555 41.1133C29.9492 41.3008 29.6289 41.5469 29.3945 41.8516C29.168 42.1562 29.0547 42.4844 29.0547 42.8359H26.8867C26.8867 42.3828 27.0039 41.9336 27.2383 41.4883C27.4727 41.043 27.8086 40.6406 28.2461 40.2812C28.6914 39.9141 29.2227 39.625 29.8398 39.4141C30.4648 39.1953 31.1602 39.0859 31.9258 39.0859C32.8477 39.0859 33.6602 39.2422 34.3633 39.5547C35.0742 39.8672 35.6289 40.3398 36.0273 40.9727C36.4336 41.5977 36.6367 42.3828 36.6367 43.3281V49.2344C36.6367 49.6562 36.6719 50.1055 36.7422 50.582C36.8203 51.0586 36.9336 51.4688 37.082 51.8125V52H34.8203C34.7109 51.75 34.625 51.418 34.5625 51.0039C34.5 50.582 34.4688 50.1914 34.4688 49.832ZM34.8438 44.3125L34.8672 45.8359H32.6758C32.0586 45.8359 31.5078 45.8867 31.0234 45.9883C30.5391 46.082 30.1328 46.2266 29.8047 46.4219C29.4766 46.6172 29.2266 46.8633 29.0547 47.1602C28.8828 47.4492 28.7969 47.7891 28.7969 48.1797C28.7969 48.5781 28.8867 48.9414 29.0664 49.2695C29.2461 49.5977 29.5156 49.8594 29.875 50.0547C30.2422 50.2422 30.6914 50.3359 31.2227 50.3359C31.8867 50.3359 32.4727 50.1953 32.9805 49.9141C33.4883 49.6328 33.8906 49.2891 34.1875 48.8828C34.4922 48.4766 34.6562 48.082 34.6797 47.6992L35.6055 48.7422C35.5508 49.0703 35.4023 49.4336 35.1602 49.832C34.918 50.2305 34.5938 50.6133 34.1875 50.9805C33.7891 51.3398 33.3125 51.6406 32.7578 51.8828C32.2109 52.1172 31.5938 52.2344 30.9062 52.2344C30.0469 52.2344 29.293 52.0664 28.6445 51.7305C28.0039 51.3945 27.5039 50.9453 27.1445 50.3828C26.793 49.8125 26.6172 49.1758 26.6172 48.4727C26.6172 47.793 26.75 47.1953 27.0156 46.6797C27.2812 46.1562 27.6641 45.7227 28.1641 45.3789C28.6641 45.0273 29.2656 44.7617 29.9688 44.582C30.6719 44.4023 31.457 44.3125 32.3242 44.3125H34.8438ZM40.0352 34H42.2148V49.5391L42.0273 52H40.0352V34ZM50.7812 45.5547V45.8008C50.7812 46.7227 50.6719 47.5781 50.4531 48.3672C50.2344 49.1484 49.9141 49.8281 49.4922 50.4062C49.0703 50.9844 48.5547 51.4336 47.9453 51.7539C47.3359 52.0742 46.6367 52.2344 45.8477 52.2344C45.043 52.2344 44.3359 52.0977 43.7266 51.8242C43.125 51.543 42.6172 51.1406 42.2031 50.6172C41.7891 50.0938 41.457 49.4609 41.207 48.7188C40.9648 47.9766 40.7969 47.1406 40.7031 46.2109V45.1328C40.7969 44.1953 40.9648 43.3555 41.207 42.6133C41.457 41.8711 41.7891 41.2383 42.2031 40.7148C42.6172 40.1836 43.125 39.7812 43.7266 39.5078C44.3281 39.2266 45.0273 39.0859 45.8242 39.0859C46.6211 39.0859 47.3281 39.2422 47.9453 39.5547C48.5625 39.8594 49.0781 40.2969 49.4922 40.8672C49.9141 41.4375 50.2344 42.1211 50.4531 42.918C50.6719 43.707 50.7812 44.5859 50.7812 45.5547ZM48.6016 45.8008V45.5547C48.6016 44.9219 48.543 44.3281 48.4258 43.7734C48.3086 43.2109 48.1211 42.7188 47.8633 42.2969C47.6055 41.8672 47.2656 41.5312 46.8438 41.2891C46.4219 41.0391 45.9023 40.9141 45.2852 40.9141C44.7383 40.9141 44.2617 41.0078 43.8555 41.1953C43.457 41.3828 43.1172 41.6367 42.8359 41.957C42.5547 42.2695 42.3242 42.6289 42.1445 43.0352C41.9727 43.4336 41.8438 43.8477 41.7578 44.2773V47.1016C41.8828 47.6484 42.0859 48.1758 42.3672 48.6836C42.6562 49.1836 43.0391 49.5938 43.5156 49.9141C44 50.2344 44.5977 50.3945 45.3086 50.3945C45.8945 50.3945 46.3945 50.2773 46.8086 50.043C47.2305 49.8008 47.5703 49.4688 47.8281 49.0469C48.0938 48.625 48.2891 48.1367 48.4141 47.582C48.5391 47.0273 48.6016 46.4336 48.6016 45.8008ZM61 49.832V43.3047C61 42.8047 60.8984 42.3711 60.6953 42.0039C60.5 41.6289 60.2031 41.3398 59.8047 41.1367C59.4062 40.9336 58.9141 40.832 58.3281 40.832C57.7812 40.832 57.3008 40.9258 56.8867 41.1133C56.4805 41.3008 56.1602 41.5469 55.9258 41.8516C55.6992 42.1562 55.5859 42.4844 55.5859 42.8359H53.418C53.418 42.3828 53.5352 41.9336 53.7695 41.4883C54.0039 41.043 54.3398 40.6406 54.7773 40.2812C55.2227 39.9141 55.7539 39.625 56.3711 39.4141C56.9961 39.1953 57.6914 39.0859 58.457 39.0859C59.3789 39.0859 60.1914 39.2422 60.8945 39.5547C61.6055 39.8672 62.1602 40.3398 62.5586 40.9727C62.9648 41.5977 63.168 42.3828 63.168 43.3281V49.2344C63.168 49.6562 63.2031 50.1055 63.2734 50.582C63.3516 51.0586 63.4648 51.4688 63.6133 51.8125V52H61.3516C61.2422 51.75 61.1562 51.418 61.0938 51.0039C61.0312 50.582 61 50.1914 61 49.832ZM61.375 44.3125L61.3984 45.8359H59.207C58.5898 45.8359 58.0391 45.8867 57.5547 45.9883C57.0703 46.082 56.6641 46.2266 56.3359 46.4219C56.0078 46.6172 55.7578 46.8633 55.5859 47.1602C55.4141 47.4492 55.3281 47.7891 55.3281 48.1797C55.3281 48.5781 55.418 48.9414 55.5977 49.2695C55.7773 49.5977 56.0469 49.8594 56.4062 50.0547C56.7734 50.2422 57.2227 50.3359 57.7539 50.3359C58.418 50.3359 59.0039 50.1953 59.5117 49.9141C60.0195 49.6328 60.4219 49.2891 60.7188 48.8828C61.0234 48.4766 61.1875 48.082 61.2109 47.6992L62.1367 48.7422C62.082 49.0703 61.9336 49.4336 61.6914 49.832C61.4492 50.2305 61.125 50.6133 60.7188 50.9805C60.3203 51.3398 59.8438 51.6406 59.2891 51.8828C58.7422 52.1172 58.125 52.2344 57.4375 52.2344C56.5781 52.2344 55.8242 52.0664 55.1758 51.7305C54.5352 51.3945 54.0352 50.9453 53.6758 50.3828C53.3242 49.8125 53.1484 49.1758 53.1484 48.4727C53.1484 47.793 53.2812 47.1953 53.5469 46.6797C53.8125 46.1562 54.1953 45.7227 54.6953 45.3789C55.1953 45.0273 55.7969 44.7617 56.5 44.582C57.2031 44.4023 57.9883 44.3125 58.8555 44.3125H61.375ZM66.6367 39.3203H68.8164V53.5117C68.8164 54.2852 68.6914 54.9414 68.4414 55.4805C68.1992 56.0195 67.832 56.4258 67.3398 56.6992C66.8555 56.9805 66.2422 57.1211 65.5 57.1211C65.3047 57.1211 65.0781 57.1016 64.8203 57.0625C64.5547 57.0234 64.332 56.9766 64.1523 56.9219L64.1641 55.1758C64.3125 55.207 64.4805 55.2305 64.668 55.2461C64.8555 55.2695 65.0195 55.2812 65.1602 55.2812C65.4805 55.2812 65.75 55.2227 65.9688 55.1055C66.1875 54.9883 66.3516 54.8008 66.4609 54.543C66.5781 54.2852 66.6367 53.9414 66.6367 53.5117V39.3203ZM66.4141 35.957C66.4141 35.6055 66.5234 35.3086 66.7422 35.0664C66.9609 34.8242 67.2773 34.7031 67.6914 34.7031C68.1133 34.7031 68.4336 34.8242 68.6523 35.0664C68.8711 35.3086 68.9805 35.6055 68.9805 35.957C68.9805 36.293 68.8711 36.582 68.6523 36.8242C68.4336 37.0586 68.1133 37.1758 67.6914 37.1758C67.2773 37.1758 66.9609 37.0586 66.7422 36.8242C66.5234 36.582 66.4141 36.293 66.4141 35.957ZM71.7461 45.8008V45.5312C71.7461 44.6172 71.8789 43.7695 72.1445 42.9883C72.4102 42.1992 72.793 41.5156 73.293 40.9375C73.793 40.3516 74.3984 39.8984 75.1094 39.5781C75.8203 39.25 76.6172 39.0859 77.5 39.0859C78.3906 39.0859 79.1914 39.25 79.9023 39.5781C80.6211 39.8984 81.2305 40.3516 81.7305 40.9375C82.2383 41.5156 82.625 42.1992 82.8906 42.9883C83.1562 43.7695 83.2891 44.6172 83.2891 45.5312V45.8008C83.2891 46.7148 83.1562 47.5625 82.8906 48.3438C82.625 49.125 82.2383 49.8086 81.7305 50.3945C81.2305 50.9727 80.625 51.4258 79.9141 51.7539C79.2109 52.0742 78.4141 52.2344 77.5234 52.2344C76.6328 52.2344 75.832 52.0742 75.1211 51.7539C74.4102 51.4258 73.8008 50.9727 73.293 50.3945C72.793 49.8086 72.4102 49.125 72.1445 48.3438C71.8789 47.5625 71.7461 46.7148 71.7461 45.8008ZM73.9141 45.5312V45.8008C73.9141 46.4336 73.9883 47.0312 74.1367 47.5938C74.2852 48.1484 74.5078 48.6406 74.8047 49.0703C75.1094 49.5 75.4883 49.8398 75.9414 50.0898C76.3945 50.332 76.9219 50.4531 77.5234 50.4531C78.1172 50.4531 78.6367 50.332 79.082 50.0898C79.5352 49.8398 79.9102 49.5 80.207 49.0703C80.5039 48.6406 80.7266 48.1484 80.875 47.5938C81.0312 47.0312 81.1094 46.4336 81.1094 45.8008V45.5312C81.1094 44.9062 81.0312 44.3164 80.875 43.7617C80.7266 43.1992 80.5 42.7031 80.1953 42.2734C79.8984 41.8359 79.5234 41.4922 79.0703 41.2422C78.625 40.9922 78.1016 40.8672 77.5 40.8672C76.9062 40.8672 76.3828 40.9922 75.9297 41.2422C75.4844 41.4922 75.1094 41.8359 74.8047 42.2734C74.5078 42.7031 74.2852 43.1992 74.1367 43.7617C73.9883 44.3164 73.9141 44.9062 73.9141 45.5312ZM93.3906 48.6367C93.3906 48.3242 93.3203 48.0352 93.1797 47.7695C93.0469 47.4961 92.7695 47.25 92.3477 47.0312C91.9336 46.8047 91.3086 46.6094 90.4727 46.4453C89.7695 46.2969 89.1328 46.1211 88.5625 45.918C88 45.7148 87.5195 45.4688 87.1211 45.1797C86.7305 44.8906 86.4297 44.5508 86.2188 44.1602C86.0078 43.7695 85.9023 43.3125 85.9023 42.7891C85.9023 42.2891 86.0117 41.8164 86.2305 41.3711C86.457 40.9258 86.7734 40.5312 87.1797 40.1875C87.5938 39.8438 88.0898 39.5742 88.668 39.3789C89.2461 39.1836 89.8906 39.0859 90.6016 39.0859C91.6172 39.0859 92.4844 39.2656 93.2031 39.625C93.9219 39.9844 94.4727 40.4648 94.8555 41.0664C95.2383 41.6602 95.4297 42.3203 95.4297 43.0469H93.2617C93.2617 42.6953 93.1562 42.3555 92.9453 42.0273C92.7422 41.6914 92.4414 41.4141 92.043 41.1953C91.6523 40.9766 91.1719 40.8672 90.6016 40.8672C90 40.8672 89.5117 40.9609 89.1367 41.1484C88.7695 41.3281 88.5 41.5586 88.3281 41.8398C88.1641 42.1211 88.082 42.418 88.082 42.7305C88.082 42.9648 88.1211 43.1758 88.1992 43.3633C88.2852 43.543 88.4336 43.7109 88.6445 43.8672C88.8555 44.0156 89.1523 44.1562 89.5352 44.2891C89.918 44.4219 90.4062 44.5547 91 44.6875C92.0391 44.9219 92.8945 45.2031 93.5664 45.5312C94.2383 45.8594 94.7383 46.2617 95.0664 46.7383C95.3945 47.2148 95.5586 47.793 95.5586 48.4727C95.5586 49.0273 95.4414 49.5352 95.207 49.9961C94.9805 50.457 94.6484 50.8555 94.2109 51.1914C93.7812 51.5195 93.2656 51.7773 92.6641 51.9648C92.0703 52.1445 91.4023 52.2344 90.6602 52.2344C89.543 52.2344 88.5977 52.0352 87.8242 51.6367C87.0508 51.2383 86.4648 50.7227 86.0664 50.0898C85.668 49.457 85.4688 48.7891 85.4688 48.0859H87.6484C87.6797 48.6797 87.8516 49.1523 88.1641 49.5039C88.4766 49.8477 88.8594 50.0938 89.3125 50.2422C89.7656 50.3828 90.2148 50.4531 90.6602 50.4531C91.2539 50.4531 91.75 50.375 92.1484 50.2188C92.5547 50.0625 92.8633 49.8477 93.0742 49.5742C93.2852 49.3008 93.3906 48.9883 93.3906 48.6367Z" fill="white"/>
</svg>
